<svg xmlns="http://www.w3.org/2000/svg" viewBox="0 0 292 292"><defs><style>.cls-1{fill:#353434;}.cls-2{fill:none;stroke:#acd100;stroke-linecap:round;stroke-miterlimit:10;stroke-width:6px;}.cls-3{fill:#fff;}</style></defs><title>Asset 1</title><g id="Layer_2" data-name="Layer 2"><g id="Layer_1-2" data-name="Layer 1"><circle class="cls-1" cx="146" cy="146" r="146"/><polyline class="cls-2" points="21.29 161.96 82.84 161.94 96.51 125.66 119.18 185.33 150.57 98.49 170.57 142.49 180.69 113.99 201.78 162 269.1 162.06"/><path class="cls-3" d="M24.41,114.55q-1.11-.4-1.26-1.14a2.57,2.57,0,0,1,.08-1.36l3.16-8.91q3.9-11,14.32-7.27L55,100.94a9.1,9.1,0,0,1,3,1.79,8.39,8.39,0,0,1,2.17,3,10.88,10.88,0,0,1,.84,4.1,14.41,14.41,0,0,1-.94,5.09L56.82,124a2.44,2.44,0,0,1-.83,1.09,1.62,1.62,0,0,1-1.61.12Zm15-15q-3.45-1.23-5.71,0t-3.56,4.92l-2.52,7.07,26.24,9.33,2.57-7.24a10.49,10.49,0,0,0,.58-2.69,7.93,7.93,0,0,0-.19-2.64,6,6,0,0,0-1.09-2.23,4.42,4.42,0,0,0-2.06-1.46Z"/><path class="cls-3" d="M69.36,80.68l-6.67,8.74,4.55,6.23a2,2,0,0,1,.41,1.61,2.36,2.36,0,0,1-.74,1.3,1.9,1.9,0,0,1-1.3.49,1.74,1.74,0,0,1-1.36-.85q-4.8-6.57-9.63-13.11T44.86,72a2.6,2.6,0,0,1-.45-1.5,2.28,2.28,0,0,1,.45-1.32A2.11,2.11,0,0,1,46,68.39a2.53,2.53,0,0,1,1.56,0L78.17,80a1.67,1.67,0,0,1,1,1,2,2,0,0,1,0,1.38,1.89,1.89,0,0,1-.89,1,1.84,1.84,0,0,1-1.58,0Zm-9.1,5.4,5.27-6.91c-2.43-.91-4.75-1.77-7-2.58s-4.65-1.72-7.26-2.72Z"/><path class="cls-3" d="M74.61,40.56a1.58,1.58,0,0,1,1.47-.37,2.35,2.35,0,0,1,1.21.82,2.26,2.26,0,0,1,.49,1.35,1.64,1.64,0,0,1-.73,1.32l-5.31,4.15L90.07,71.25a1.67,1.67,0,0,1,.39,1.5,2.27,2.27,0,0,1-.8,1.23,2.14,2.14,0,0,1-1.37.46A1.69,1.69,0,0,1,87,73.69L68.62,50.27,63,54.68a1.65,1.65,0,0,1-1.46.4,2.28,2.28,0,0,1-1.19-.8,2.34,2.34,0,0,1-.5-1.37,1.54,1.54,0,0,1,.71-1.34Z"/><path class="cls-3" d="M111.17,51.5l-10.1,4.36.93,7.65a2,2,0,0,1-.43,1.61,2.3,2.3,0,0,1-1.28.77,1.89,1.89,0,0,1-1.38-.2,1.8,1.8,0,0,1-.77-1.41q-1-8.09-2-16.14T94.06,31.91a2.49,2.49,0,0,1,.34-1.53,2.12,2.12,0,0,1,2.38-1,2.59,2.59,0,0,1,1.35.81l21.07,25a1.68,1.68,0,0,1,.41,1.4,1.92,1.92,0,0,1-.68,1.19,1.88,1.88,0,0,1-1.28.46,1.85,1.85,0,0,1-1.39-.75Zm-10.58.26,8-3.45q-2.5-3-4.83-5.67c-1.56-1.8-3.22-3.77-5-5.92Z"/><path class="cls-3" d="M162.12,53.57a1.67,1.67,0,0,1-.69,1.37,2,2,0,0,1-1.33.38,2.31,2.31,0,0,1-1.12-.43,2.23,2.23,0,0,1-.85-1q-1.42-3.36-2.69-6.41c-.85-2-1.69-4-2.54-6s-1.7-4-2.54-6L147.67,29,146,52.44a1.67,1.67,0,0,1-.69,1.37,2.13,2.13,0,0,1-2.68-.19,1.68,1.68,0,0,1-.52-1.46l2.23-31.72a1.48,1.48,0,0,1,.55-1.15,2.33,2.33,0,0,1,1.13-.45,2.23,2.23,0,0,1,1.2.17,1.33,1.33,0,0,1,.78.74l10.72,25.46,1.66-23.65a1.68,1.68,0,0,1,.69-1.37,2.13,2.13,0,0,1,1.39-.38,2.28,2.28,0,0,1,1.35.57,1.68,1.68,0,0,1,.52,1.46Z"/><path class="cls-3" d="M181.25,25.81a1.88,1.88,0,0,1,1.14-1.22,2.21,2.21,0,0,1,1.52,0l12.77,4.67a1.76,1.76,0,0,1,1.18,1.06,2.16,2.16,0,0,1,0,1.44,2.24,2.24,0,0,1-.92,1.14,1.74,1.74,0,0,1-1.6.08l-11-4-3.94,10.77,8.72,3.19A1.89,1.89,0,0,1,190.32,44a2.07,2.07,0,0,1,0,1.45,2.31,2.31,0,0,1-1,1.16,1.79,1.79,0,0,1-1.64.09L179,43.5,174.8,55l11,4a1.69,1.69,0,0,1,1.12,1.07,2.12,2.12,0,0,1,0,1.41,2.1,2.1,0,0,1-.91,1.12,1.72,1.72,0,0,1-1.53.07L171.69,58a2.67,2.67,0,0,1-1.2-.85,1.83,1.83,0,0,1,0-1.81Z"/><path class="cls-3" d="M196.45,67.28a1.69,1.69,0,0,1-1.36.81,2.25,2.25,0,0,1-1.33-.43,2.13,2.13,0,0,1-.84-1.15,1.69,1.69,0,0,1,.37-1.52L212,39.3a2,2,0,0,1,1.22-.87,1.89,1.89,0,0,1,1.5.44l6.46,4.69a17.64,17.64,0,0,1,1.8,1.6,9.26,9.26,0,0,1,1.87,2.71,7.93,7.93,0,0,1,.66,3.66,8.29,8.29,0,0,1-1.85,4.5l-4.34,6A10.45,10.45,0,0,1,215,65.7a7.35,7.35,0,0,1-5.16,0l-1.51,8.92a2.23,2.23,0,0,1-.44,1.06,1.55,1.55,0,0,1-.8.55,2.25,2.25,0,0,1-1,.07,1.86,1.86,0,0,1-.87-.35,2.13,2.13,0,0,1-.71-.94,2.48,2.48,0,0,1-.1-1.47l1.72-9.71-4.74-3.44Zm24-13.54a7.22,7.22,0,0,0,.66-1.16,3.71,3.71,0,0,0,.33-1.66,4.44,4.44,0,0,0-.59-2,6.62,6.62,0,0,0-2.06-2.15l-4.88-3.55-10.18,14,4.45,3.23A14.21,14.21,0,0,0,210,61.59a4.59,4.59,0,0,0,2,.53,4.08,4.08,0,0,0,2-.49,6,6,0,0,0,2-1.91Z"/><path class="cls-3" d="M240.1,62.86a1.69,1.69,0,0,1,1.65-.41,2.59,2.59,0,0,1,1.08.82l5.62,7.61q6.92,9.38-2,15.94l-12.18,9a9.31,9.31,0,0,1-3.16,1.49,8.52,8.52,0,0,1-3.7.12,11,11,0,0,1-3.86-1.6,14.31,14.31,0,0,1-3.7-3.62l-5.72-7.76a2.35,2.35,0,0,1-.44-1.29,1.6,1.6,0,0,1,.8-1.4Zm4.05,20.82q3-2.18,3.19-4.74c.16-1.71-.54-3.61-2.08-5.7l-4.46-6L218.4,83.73,223,89.91a10.77,10.77,0,0,0,1.9,2,8,8,0,0,0,2.3,1.32,5.91,5.91,0,0,0,2.46.35,4.4,4.4,0,0,0,2.35-.89Z"/><path class="cls-3" d="M234.11,105.38a2,2,0,0,1,1.47-.73,1.82,1.82,0,0,1,1.3.52,2.16,2.16,0,0,1,.62,1.32,2.34,2.34,0,0,1-.55,1.66,6.71,6.71,0,0,0-.73,1.16,6.4,6.4,0,0,0-.57,1.7,9.74,9.74,0,0,0-.16,2.15,8.27,8.27,0,0,0,.47,2.46,6.26,6.26,0,0,0,.72,1.35,5.84,5.84,0,0,0,1.41,1.45,6.59,6.59,0,0,0,2.13,1,5.82,5.82,0,0,0,2.87,0,4.64,4.64,0,0,0,3.21-2.67,18.25,18.25,0,0,0,1.69-6c.17-1.69.37-3.27.61-4.75a19,19,0,0,1,1.06-4,9.83,9.83,0,0,1,1.82-3,6.68,6.68,0,0,1,2.92-1.89,8.32,8.32,0,0,1,4-.45,8.41,8.41,0,0,1,3.39,1.3,10.11,10.11,0,0,1,2.63,2.63,14.24,14.24,0,0,1,1.8,3.57,10.19,10.19,0,0,1,.59,3.26,11.15,11.15,0,0,1-.32,2.77,8.61,8.61,0,0,1-.83,2.14,9.68,9.68,0,0,1-.94,1.42,1.83,1.83,0,0,1-1.39.79,2.19,2.19,0,0,1-1.35-.38,2,2,0,0,1-.78-1.17,1.87,1.87,0,0,1,.39-1.6,7.71,7.71,0,0,0,.58-1,7.43,7.43,0,0,0,.5-1.36,6.18,6.18,0,0,0,.21-1.66,5.92,5.92,0,0,0-.35-1.92,10.11,10.11,0,0,0-1.07-2.19,6.6,6.6,0,0,0-1.55-1.68,5.48,5.48,0,0,0-2-.93,4.06,4.06,0,0,0-2.29.17,3.41,3.41,0,0,0-1.56,1.1,6.25,6.25,0,0,0-1,2,21.92,21.92,0,0,0-.62,2.71c-.17,1-.31,2.15-.42,3.4l-.63,4.32a14.87,14.87,0,0,1-1.16,4,9.76,9.76,0,0,1-2.32,3.15,8.89,8.89,0,0,1-4,1.89,10.56,10.56,0,0,1-3.85.18,10,10,0,0,1-3.37-1.15,9.56,9.56,0,0,1-2.69-2.26,10.25,10.25,0,0,1-1.75-3.18,12.52,12.52,0,0,1-.62-3,13.78,13.78,0,0,1,.07-3.15,12.31,12.31,0,0,1,.79-3A7.35,7.35,0,0,1,234.11,105.38Z"/><path class="cls-3" d="M99.1,225.87,76.34,252.93a.44.44,0,0,1-.7.06L71,249.12a.52.52,0,0,1-.12-.28.45.45,0,0,1,.11-.38l13.12-15.59L66.28,244.69a.49.49,0,0,1-.55,0l-3.33-2.8a.39.39,0,0,1-.12-.54l9.13-19.67L58,237.54a.44.44,0,0,1-.7.06l-4.67-3.93c-.2-.17-.19-.38,0-.63L75.45,206c.21-.26.42-.3.62-.14l5.9,5a.46.46,0,0,1,.16.57l-9.25,21.36,20-12.35c.14-.17.31-.17.51,0L99,225.17A.44.44,0,0,1,99.1,225.87Z"/><path class="cls-3" d="M94,261.9l12.08-33.23c.12-.31.31-.42.59-.32l17.6,6.4a.44.44,0,0,1,.29.64l-2,5.54a.43.43,0,0,1-.64.29l-11.18-4.06-2.56,7,8.7,3.16c.28.1.36.31.25.62L115,253.62c-.11.31-.3.41-.58.31l-8.7-3.16L103,258.38l11.18,4.07a.44.44,0,0,1,.3.63l-2,5.54a.44.44,0,0,1-.63.3l-17.6-6.4C93.94,262.42,93.86,262.21,94,261.9Zm24.83-40.56c.11-.19.3-.24.57-.14l4,1.45a.69.69,0,0,1,.45.37q.09.24-.3.51l-4.17,2.93a.64.64,0,0,1-.65.18l-2-.72a.6.6,0,0,1-.29-.25.38.38,0,0,1,0-.43Z"/><path class="cls-3" d="M153.12,237.48a.52.52,0,0,1,0,.5l-7.93,15.77L152.94,273a.52.52,0,0,1,0,.46.39.39,0,0,1-.39.18l-6.22-.3a.34.34,0,0,1-.37-.29l-5.43-13.17-6.67,12.59c-.08.14-.15.22-.21.23a.83.83,0,0,1-.25,0l-6.27-.3a.4.4,0,0,1-.37-.21.52.52,0,0,1,0-.47l9.48-18.41-6.32-16.46a.5.5,0,0,1,.05-.49.46.46,0,0,1,.42-.2l6.38.31a.32.32,0,0,1,.25.09l.18.2,3.93,10,4.93-9.58a.39.39,0,0,1,.4-.26l6.27.3A.45.45,0,0,1,153.12,237.48Z"/><path class="cls-3" d="M166.81,271l-6.73-34.72c-.06-.32,0-.51.34-.57l6.17-1.19a.43.43,0,0,1,.58.39l6.73,34.71a.45.45,0,0,1-.4.59l-6.16,1.19C167.05,271.48,166.87,271.34,166.81,271Z"/><path class="cls-3" d="M199.81,245.24a.44.44,0,0,1,.23-.66l5.66-2.72a.43.43,0,0,1,.66.23l1.51,3.13q2.65,5.5.94,9.32t-7.26,6.5a20.55,20.55,0,0,1-5,1.71,10.4,10.4,0,0,1-4.45,0,8.81,8.81,0,0,1-3.85-2.09,14.15,14.15,0,0,1-3.16-4.47l-6.29-13.05q-2.65-5.51-.87-9.3t7.34-6.47a20.52,20.52,0,0,1,5-1.72,10,10,0,0,1,4.39,0,8.76,8.76,0,0,1,3.79,2.09,14.2,14.2,0,0,1,3.1,4.4l.5,1.05a.43.43,0,0,1-.23.66l-5.71,2.75a.44.44,0,0,1-.66-.24l-.38-.79a3.7,3.7,0,0,0-2.75-2.34,6,6,0,0,0-3.58.62l-.6.29a4.54,4.54,0,0,0-2.78,3.11,4.38,4.38,0,0,0,.05,2,11.83,11.83,0,0,0,.85,2.28l4.73,9.82a8,8,0,0,0,1.7,2.45,4.81,4.81,0,0,0,1.81,1.09,3.8,3.8,0,0,0,1.8.11,6,6,0,0,0,1.64-.52l.6-.28a4.61,4.61,0,0,0,2.83-3.14,7.24,7.24,0,0,0-.85-4.3Z"/><path class="cls-3" d="M210,209.74q5-5,9.49-4.84,3.59.15,7.45,4l10.25,10.23c2.66,2.64,4,5.15,4.1,7.51a9.87,9.87,0,0,1-1.12,4.64,22.92,22.92,0,0,1-8.62,8.64,9.92,9.92,0,0,1-4.61,1.11,8.84,8.84,0,0,1-3.66-1,16.34,16.34,0,0,1-3.9-3l-10.26-10.23q-3.83-3.81-4-7.51a9.29,9.29,0,0,1,1.12-4.64A21,21,0,0,1,210,209.74Zm13,5.63a8.32,8.32,0,0,0-2.4-1.77,4.7,4.7,0,0,0-2.08-.44,3.57,3.57,0,0,0-1.75.5,7.23,7.23,0,0,0-1.4,1.1l-.47.46a4.34,4.34,0,0,0-1.55,3.78,7.18,7.18,0,0,0,2.22,3.82l7.8,7.78a8.6,8.6,0,0,0,2.42,1.79,4.63,4.63,0,0,0,2.06.46,3.76,3.76,0,0,0,1.74-.49,6.53,6.53,0,0,0,1.42-1.07l.46-.47A4.27,4.27,0,0,0,233,227a7.71,7.71,0,0,0-2.19-3.85Z"/><path d="M75.19,248.22,94,225.84l-1.56-1.32L67.28,239.91a.79.79,0,0,1-.44,0c-.08,0-.1-.17-.07-.38l10.89-27.41-1.56-1.31L57.27,233.15c-.16.2-.32.21-.48,0s-.18-.34-.06-.48L75.8,210a.3.3,0,0,1,.47,0l2.06,1.74c.14.12.16.23.07.34L67.77,238.81l24.55-15,.25,0a.24.24,0,0,1,.22.08l2,1.67c.17.14.2.28.08.42L75.74,248.68c-.17.2-.33.21-.49,0S75.07,248.36,75.19,248.22Z"/><path d="M108,232.56a.39.39,0,0,1,.56-.27l11.91,4.33c.24.09.3.24.19.45s-.26.29-.43.22l-11.65-4.23L104,245.9l9.53,3.46c.17.06.21.22.12.46s-.22.33-.39.26l-9.52-3.46-4.91,13.51,11.64,4.24c.18.06.24.2.2.42s-.18.29-.42.2l-11.91-4.33a.38.38,0,0,1-.26-.56Z"/><path d="M140.77,254.09l-8.89,15.29q-.12.22-.42.12c-.2-.06-.26-.22-.17-.47l9.08-15.67-6.2-13.42c-.13-.27-.07-.44.19-.52a.42.42,0,0,1,.55.17l5.93,13.07L148,240.21c.19-.17.34-.19.47-.06a.4.4,0,0,1,.06.47l-7.29,12.78,7.49,16.46c.09.26,0,.41-.16.46s-.34,0-.41-.16Z"/><path d="M163.86,238.43c0-.18,0-.29.25-.33a.26.26,0,0,1,.35.21l5.65,29.15c0,.25,0,.4-.23.44s-.32-.07-.37-.32Z"/><path d="M186.7,230.47a16.78,16.78,0,0,1,3-1.11,9.44,9.44,0,0,1,3-.31,6.13,6.13,0,0,1,2.69.82,5,5,0,0,1,2,2.26c.13.26.08.44-.16.53a.37.37,0,0,1-.53-.2,7.55,7.55,0,0,0-.63-.92,4.36,4.36,0,0,0-1.68-1.27,7,7,0,0,0-3-.54A11,11,0,0,0,187,231q-4.07,2-5.1,4.63t.82,6.54l5.77,12q1.91,4,4.72,4.48a10.7,10.7,0,0,0,6.49-1.26c2.51-1.21,4.17-2.68,5-4.41s.59-3.85-.62-6.36a.29.29,0,0,1,.16-.44.29.29,0,0,1,.44.15q2.06,4.27.65,7a11.12,11.12,0,0,1-5.33,4.62c-2.78,1.34-5.15,1.77-7.1,1.31s-3.6-2.07-4.92-4.82l-5.76-12a12.16,12.16,0,0,1-1.26-4.07,6.54,6.54,0,0,1,.47-3.22,7.08,7.08,0,0,1,2-2.58A15.85,15.85,0,0,1,186.7,230.47Z"/><path d="M211.84,224.58c-2-2-3-4-3.05-6.08s1-4.07,3-6.08l1-1q3-3,6.06-2.95c2.06,0,4.09,1,6.1,3l9.67,9.65a7.93,7.93,0,0,1,0,12.07l-1,1a8.58,8.58,0,0,1-6,2.93,7.34,7.34,0,0,1-3.18-.8,11.09,11.09,0,0,1-2.86-2.12Zm22.25,8.11a9,9,0,0,0,1.82-2.57,8.3,8.3,0,0,0,.74-2.81,7,7,0,0,0-.67-3,9.25,9.25,0,0,0-1.91-2.68L224.4,212q-5.66-5.64-11.18-.1l-1,1a8.15,8.15,0,0,0-2.78,5.63q0,2.86,2.79,5.67l9.68,9.64a7.82,7.82,0,0,0,5.57,2.61,8,8,0,0,0,5.6-2.74Z"/></g></g></svg>